<svg width="48" height="48" viewBox="0 0 48 48" fill="none" xmlns="http://www.w3.org/2000/svg">
<g clip-path="url(#clip0_2_2)">
<path d="M48 24C48 10.7452 37.2548 0 24 0C10.7452 0 0 10.7452 0 24C0 37.2548 10.7452 48 24 48C37.2548 48 48 37.2548 48 24Z" fill="url(#paint0_linear_2_2)"/>
<path fill-rule="evenodd" clip-rule="evenodd" d="M27 14C24.7909 14 23 15.7909 23 18V23.3414C22.3744 23.1203 21.7013 23 21 23C17.6863 23 15 25.6863 15 29C15 32.3137 17.6863 35 21 35C24.3137 35 27 32.3137 27 29C27 28.6593 26.9716 28.3252 26.917 28H27V14Z" fill="#ED3675"/>
<path d="M27 14H29C30.6569 14 32 15.3431 32 17C32 18.6569 30.6569 20 29 20H27V14Z" fill="#CB1B4D"/>
</g>
<defs>
<linearGradient id="paint0_linear_2_2" x1="24" y1="0" x2="24" y2="48" gradientUnits="userSpaceOnUse">
<stop stop-color="#FFD763"/>
<stop offset="1" stop-color="#FEC835"/>
</linearGradient>
<clipPath id="clip0_2_2">
<rect width="48" height="48" fill="white"/>
</clipPath>
</defs>
</svg>
